<svg width="1440" height="1063" viewBox="0 0 1440 1063" fill="none" xmlns="http://www.w3.org/2000/svg">
<path d="M-109 1062C-120.334 999.667 -49.4002 872.6 325 863C793 851 1017 648 1075 547C1133 446 1151 269 1483 111" stroke="white" stroke-opacity="0.3" stroke-width="0.5"/>
<path d="M-148 722C-43.6667 743 239.174 774.053 392 749C453 739 730 686 927 461C1124 236 1117 -24 1420 -63" stroke="white" stroke-opacity="0.3" stroke-width="0.5"/>
<path d="M-93 427C-51.6667 472.333 61.6 553 184 513C337 463 430 351 448 267C472.942 150.605 481 -10 290 -101" stroke="white" stroke-opacity="0.3" stroke-width="0.5"/>
<path d="M-67 293C-60.6667 345.333 -22.2 452.4 81 462C210 474 429 309 383 146C346.2 15.6 109 -15 -5 -14" stroke="white" stroke-opacity="0.3" stroke-width="0.5"/>
<path d="M-8 298.001C8 316.001 53.2 345.201 106 318.001C172 284.001 228.558 223.9 239 199.001C252 168.001 271 114.001 182 91.0011C110.8 72.6011 19.6667 91.3345 -17 103.001" stroke="white" stroke-opacity="0.3" stroke-width="0.5"/>
</svg>
